<svg version="1.1" id="Layer_1" xmlns="http://www.w3.org/2000/svg" xmlns:xlink="http://www.w3.org/1999/xlink" x="0px" y="0px"
	 width="100%" viewBox="0 0 1000 1000" enable-background="new 0 0 1000 1000" xml:space="preserve">
<path fill="#F2F2F2" opacity="0.0" stroke="none"
	d="
M584.000000,1001.000000
	C389.333344,1001.000000 195.166672,1001.000000 1.000000,1001.000000
	C1.000000,667.666687 1.000000,334.333344 1.000000,1.000000
	C334.333344,1.000000 667.666687,1.000000 1001.000000,1.000000
	C1001.000000,334.333344 1001.000000,667.666687 1001.000000,1001.000000
	C862.166687,1001.000000 723.333313,1001.000000 584.000000,1001.000000
M909.922119,351.499146
	C909.851746,339.171417 909.804504,326.843475 909.706055,314.515961
	C909.494507,288.028473 902.736084,263.411774 887.205078,241.813171
	C861.522827,206.097458 826.390686,188.042252 782.348938,188.024597
	C595.049011,187.949539 407.749115,187.991089 220.449188,187.997589
	C217.617096,187.997681 214.782715,188.038132 211.953293,188.154694
	C192.128113,188.971436 173.474686,194.311707 156.513962,204.401901
	C114.722687,229.264114 93.334312,266.489899 93.177055,314.957764
	C92.779686,437.434265 93.000305,559.912842 93.037598,682.390564
	C93.039619,689.024658 93.221657,695.707825 94.013992,702.284485
	C98.198196,737.014465 114.126137,765.309021 141.551666,786.967773
	C165.206909,805.649048 192.492950,813.568542 222.399796,813.562866
	C407.533447,813.527649 592.667053,813.565002 777.800720,813.486084
	C785.602844,813.482788 793.452820,812.960876 801.198792,812.012817
	C859.203003,804.913086 908.937012,755.752075 909.579895,690.435669
	C910.688416,577.800049 909.909180,465.145813 909.922119,351.499146
z"/>
<path fill="#1E1E1B" opacity="1.000000" stroke="none"
	d="
M909.922119,351.999268
	C909.909180,465.145813 910.688416,577.800049 909.579895,690.435669
	C908.937012,755.752075 859.203003,804.913086 801.198792,812.012817
	C793.452820,812.960876 785.602844,813.482788 777.800720,813.486084
	C592.667053,813.565002 407.533447,813.527649 222.399796,813.562866
	C192.492950,813.568542 165.206909,805.649048 141.551666,786.967773
	C114.126137,765.309021 98.198196,737.014465 94.013992,702.284485
	C93.221657,695.707825 93.039619,689.024658 93.037598,682.390564
	C93.000305,559.912842 92.779686,437.434265 93.177055,314.957764
	C93.334312,266.489899 114.722687,229.264114 156.513962,204.401901
	C173.474686,194.311707 192.128113,188.971436 211.953293,188.154694
	C214.782715,188.038132 217.617096,187.997681 220.449188,187.997589
	C407.749115,187.991089 595.049011,187.949539 782.348938,188.024597
	C826.390686,188.042252 861.522827,206.097458 887.205078,241.813171
	C902.736084,263.411774 909.494507,288.028473 909.706055,314.515961
	C909.804504,326.843475 909.851746,339.171417 909.922119,351.999268
M822.597656,206.568085
	C821.958069,206.506851 821.318481,206.445602 820.813965,206.366898
	C820.813965,206.366898 820.744080,206.483795 820.561951,205.728806
	C818.333679,205.191559 816.105408,204.654312 813.966125,204.046570
	C813.966125,204.046570 813.925781,204.152679 813.548523,203.505432
	C804.111511,199.082901 793.791138,199.196808 783.904663,199.183151
	C596.627563,198.924942 409.349945,198.987854 222.072464,199.044006
	C220.409271,199.044510 218.746292,199.860428 216.384949,200.670395
	C213.941956,200.872345 211.498962,201.074295 208.235733,201.163315
	C172.433975,204.860809 144.407776,221.731277 124.294937,251.435196
	C116.520554,262.916901 110.964828,275.551819 108.240891,290.087708
	C108.046005,291.704224 107.851120,293.320740 107.490852,295.130157
	C107.490852,295.130157 107.563049,295.373779 107.154114,296.010345
	C107.103180,297.006439 107.052254,298.002502 106.809723,299.645813
	C106.822952,300.092834 106.836189,300.539856 106.516663,301.748657
	C106.266533,315.365784 105.995682,328.982666 105.824745,342.600800
	C105.815788,343.314850 106.655518,344.039581 107.731384,344.864655
	C108.154678,344.827667 108.577972,344.790649 109.920860,344.946014
	C110.420670,344.957550 110.920471,344.979156 111.420280,344.979156
	C371.738708,344.981567 632.057190,344.982910 892.375610,344.972656
	C893.819946,344.972595 895.264343,344.808746 896.719788,344.720703
	C896.719788,332.931274 896.719788,321.476196 896.788025,309.213226
	C896.647095,308.420837 896.506165,307.628448 896.607300,306.336914
	C896.459351,305.818329 896.311340,305.299713 896.238037,303.917023
	C895.712891,291.642181 892.573425,279.957611 887.742249,268.764008
	C876.245850,242.126938 856.981750,222.967453 830.629395,209.829651
	C829.710632,209.567032 828.791931,209.304413 827.382568,209.045288
	C827.382568,209.045288 826.995667,208.743439 826.807068,208.064468
	C825.498291,207.735306 824.189453,207.406128 822.957458,207.045792
	C822.957458,207.045792 822.974182,207.126953 822.597656,206.568085
M107.561378,706.409241
	C110.690002,727.023193 119.134972,745.245300 132.716415,760.982422
	C156.007751,787.970520 185.799850,800.807617 221.258148,800.811890
	C408.074860,800.834229 594.891541,800.835571 781.708252,800.788025
	C787.695862,800.786499 793.769348,800.711182 799.656860,799.763489
	C837.063232,793.742615 865.507080,774.325073 883.503784,740.979980
	C888.670349,731.407166 890.708618,720.145935 894.785583,709.036072
	C895.332581,705.168335 895.879517,701.300659 896.458801,697.204407
	C632.734131,697.204407 369.743958,697.204407 106.173538,697.204407
	C106.765091,700.228516 107.295845,702.941833 107.561378,706.409241
M594.500427,357.432281
	C431.744934,357.432281 268.989471,357.432281 106.070923,357.432281
	C106.070923,466.601135 106.070923,575.184387 106.070923,683.987305
	C369.703705,683.987305 633.107788,683.987305 896.731323,683.987305
	C896.731323,575.110352 896.731323,466.372314 896.731323,357.432190
	C796.149231,357.432190 695.824829,357.432190 594.500427,357.432281
z"/>
<path fill="#FFFFFF" opacity="1.0" stroke="none"
	d="
M595.000488,357.432251
	C695.824829,357.432190 796.149231,357.432190 896.731323,357.432190
	C896.731323,466.372314 896.731323,575.110352 896.731323,683.987305
	C633.107788,683.987305 369.703705,683.987305 106.070923,683.987305
	C106.070923,575.184387 106.070923,466.601135 106.070923,357.432281
	C268.989471,357.432281 431.744934,357.432281 595.000488,357.432251
z"/>
<path fill="#FDF346" opacity="1.000000" stroke="none"
	d="
M826.995667,208.743439
	C826.995667,208.743439 827.382568,209.045288 827.864258,209.290344
	C829.192932,209.866821 830.039856,210.198273 830.886841,210.529709
	C856.981750,222.967453 876.245850,242.126938 887.742249,268.764008
	C892.573425,279.957611 895.712891,291.642181 896.110840,304.608643
	C896.110840,305.812164 896.238037,306.324127 896.365234,306.836060
	C896.506165,307.628448 896.647095,308.420837 896.525574,309.956421
	C896.194702,319.186737 896.131714,327.673950 896.056458,336.161011
	C895.979065,344.895203 896.994812,343.982208 888.388550,343.982605
	C630.529358,343.994537 372.670135,343.990295 114.810936,344.023163
	C112.874344,344.023407 110.937820,344.499664 109.001266,344.753662
	C108.577972,344.790649 108.154678,344.827667 107.385178,344.359863
	C107.331451,330.777161 107.653900,317.699738 107.866425,304.620514
	C107.886017,303.415131 107.205070,302.198364 106.849411,300.986877
	C106.836189,300.539856 106.822952,300.092834 107.167709,299.036438
	C107.538147,297.409271 107.550598,296.391541 107.563049,295.373779
	C107.563049,295.373779 107.490852,295.130157 107.922165,294.804962
	C108.480965,292.795105 108.608459,291.110474 108.735954,289.425812
	C110.964828,275.551819 116.520554,262.916901 124.294937,251.435196
	C144.407776,221.731277 172.433975,204.860809 208.984360,201.446503
	C211.221329,201.819870 212.709686,201.988892 214.198029,201.988998
	C405.376556,202.001892 596.555054,202.004501 787.733582,201.971634
	C789.506287,201.971329 791.278931,201.489914 793.466309,201.175964
	C800.562683,202.130081 807.244202,203.141373 813.925781,204.152679
	C813.925781,204.152679 813.966125,204.046570 814.174927,204.342072
	C816.503784,205.252991 818.623962,205.868393 820.744080,206.483795
	C820.744080,206.483795 820.813965,206.366898 820.963013,206.606354
	C821.732788,206.939545 822.353516,207.033249 822.974182,207.126953
	C822.974182,207.126953 822.957458,207.045792 823.134521,207.303864
	C824.539673,207.955765 825.767639,208.349609 826.995667,208.743439
M641.983826,290.994965
	C641.983826,290.994965 641.920471,290.967651 642.414673,290.804688
	C642.612183,290.528595 642.809631,290.252502 643.106506,289.517365
	C643.218262,289.191223 643.441956,288.988647 644.558838,288.825989
	C649.901733,279.837463 645.426819,267.511017 635.985779,265.004333
	C635.985779,265.004333 635.969421,265.076691 635.584473,264.555634
	C635.174316,264.454681 634.764221,264.353729 634.121033,264.307556
	C634.121033,264.307556 633.972717,264.119629 633.833313,263.341736
	C629.963501,262.705170 626.092346,261.585724 622.224243,261.595795
	C619.481506,261.602905 616.742798,263.135803 613.992065,264.008484
	C613.992065,264.008484 613.972656,263.995392 613.174194,263.969269
	C610.905884,264.104828 608.214050,263.560730 608.058838,267.050690
	C608.058838,267.050690 608.146057,267.079956 607.641418,267.210083
	C607.425232,267.472565 607.209106,267.735016 607.000000,268.000000
	C607.000000,268.000000 606.999329,267.993317 606.269409,267.998016
	C605.496643,268.973175 604.723938,269.948303 603.992798,270.988495
	C603.992798,270.988495 603.920410,270.961578 603.485779,271.181641
	C603.216553,271.390900 603.049316,271.662872 602.867737,272.458130
	C602.733643,272.774078 602.500122,272.973907 601.429871,273.120056
	C600.449341,274.188782 598.849426,275.125671 598.589294,276.347748
	C596.975342,283.928802 595.755310,291.608459 599.451721,298.960938
	C600.229736,300.508484 601.859558,301.627777 603.012024,302.975189
	C603.012024,302.975189 603.065247,302.902252 603.079224,303.562378
	C603.548279,303.884796 604.017334,304.207245 604.425049,304.674408
	C604.425049,304.674408 604.551086,304.580444 604.286072,305.314178
	C605.555298,306.188080 606.824585,307.061981 608.026123,307.991699
	C608.026123,307.991699 608.050903,307.907532 608.122864,308.625244
	C615.411865,314.548218 623.907227,314.524597 632.564880,313.465454
	C633.106567,313.399200 633.512329,312.222382 634.171631,311.520538
	C634.171631,311.520538 634.289856,311.675385 635.181274,311.864716
	C637.612427,311.882538 640.493225,312.791260 640.992920,309.000977
	C640.992920,309.000977 640.935059,308.976379 641.417908,308.796600
	C641.608276,308.519531 641.798645,308.242462 642.003418,308.001343
	C642.003418,308.001343 641.966064,307.991333 642.452881,307.710236
	C642.592224,307.372589 642.731567,307.034973 642.868896,306.314728
	C642.868896,306.314728 643.078491,305.994690 643.597656,305.436646
	C643.057678,303.295227 642.517700,301.153809 642.002930,299.004028
	C642.002930,299.004028 641.984253,299.025635 641.949158,298.396362
	C641.536865,297.985931 641.124512,297.575531 640.821289,297.146179
	C640.821289,297.146179 640.782654,297.249908 640.857422,296.535065
	C640.848450,294.928802 640.839478,293.322540 640.858643,291.833435
	C640.858643,291.833435 640.741089,291.807159 641.285156,291.738129
	C641.515137,291.467590 641.745117,291.197083 641.983826,290.994965
M318.653595,247.324341
	C318.483246,247.665619 318.312866,248.006912 317.942596,248.976044
	C311.727081,257.092224 305.511566,265.208435 299.026825,273.676117
	C292.516449,265.128937 286.500061,257.180115 280.424591,249.276703
	C277.670868,245.694443 271.912079,244.305893 267.353394,245.968399
	C263.106018,247.517395 263.893982,251.197327 263.882935,254.414658
	C263.826874,270.738434 263.828094,287.062592 263.878265,303.386383
	C263.895355,308.948334 265.481384,310.788208 270.891174,310.743256
	C273.583893,310.720886 276.267181,309.561096 279.466034,308.623627
	C279.603516,308.073151 279.740997,307.522675 279.875214,306.907806
	C279.875214,306.907806 279.926605,306.868835 280.567383,306.363007
	C280.725494,298.790009 280.766876,291.211365 281.133667,283.648468
	C281.213287,282.006989 282.460052,280.422089 283.002441,278.997559
	C283.002441,278.997559 283.161530,278.804565 283.258881,279.297333
	C283.507111,279.507721 283.755341,279.718140 284.588196,280.274963
	C286.446289,282.824951 288.281219,285.392212 290.166809,287.921722
	C296.333923,296.195007 300.736450,296.427887 308.281677,288.681732
	C308.529724,288.130615 308.777771,287.579468 308.998779,287.001221
	C308.998779,287.001221 309.029816,287.021606 309.473022,286.763794
	C309.619202,286.462769 309.765411,286.161743 309.966156,285.957520
	C309.966156,285.957520 309.869354,285.902954 310.580658,285.862885
	C311.046539,284.891846 311.512390,283.920807 312.004578,282.995789
	C312.004578,282.995789 311.952026,282.988770 312.437256,282.741028
	C312.577087,282.416046 312.716949,282.091064 312.884491,281.899139
	C312.884491,281.899139 312.748962,281.888611 313.332642,281.681366
	C313.566742,281.133362 313.800812,280.585358 314.000000,280.001221
	C314.000000,280.001221 314.036865,280.033630 314.857117,280.067108
	C315.568695,281.311554 316.794952,282.516571 316.893768,283.807922
	C317.172699,287.452789 316.843628,291.140350 317.028015,294.797302
	C317.215179,298.509399 317.729187,302.205017 318.382507,306.310608
	C318.561493,306.639008 318.535095,306.950012 318.302521,307.940002
	C318.610901,308.260101 318.919312,308.580231 319.103302,308.902496
	C319.103302,308.902496 319.136261,308.782562 319.293060,309.325226
	C319.612061,309.500214 319.931061,309.675232 320.139099,309.867432
	C320.139099,309.867432 320.169800,309.759460 320.211639,310.579803
	C324.758942,313.207642 330.769745,312.560486 333.041595,309.081238
	C333.041595,309.081238 333.159271,309.066193 333.964905,308.996002
	C334.640045,307.709473 335.893707,306.427155 335.903046,305.135834
	C336.031921,287.364471 336.031982,269.591583 335.899628,251.820267
	C335.890167,250.547012 334.604553,249.283264 333.431488,247.726288
	C332.944580,247.162552 332.457672,246.598831 331.810974,245.253189
	C328.087646,243.649658 324.389771,242.458176 320.758942,246.170883
	C320.758942,246.170883 320.426849,246.168594 319.828430,246.275482
	C319.584534,246.583694 319.340607,246.891891 319.082458,247.084229
	C319.082458,247.084229 319.198212,247.099457 318.653595,247.324341
M458.923309,270.069275
	C458.923309,270.069275 458.851105,270.188965 458.703674,269.661682
	C458.397400,269.485260 458.091095,269.308807 457.888977,269.112549
	C457.888977,269.112549 457.869263,269.216705 457.707916,268.676025
	C457.387451,268.505585 457.066986,268.335114 456.847046,268.148590
	C456.847046,268.148590 456.807953,268.242554 456.828430,267.507660
	C455.849701,267.033081 454.870941,266.558502 453.963196,266.026215
	C453.963196,266.026215 453.947510,266.116333 453.602417,265.569092
	C453.201294,265.434784 452.800201,265.300507 452.162872,265.225037
	C452.162872,265.225037 452.021240,265.027100 451.581787,264.433929
	C447.603668,261.219940 443.129944,261.011963 439.575195,264.091797
	C439.575195,264.091797 439.143890,264.096497 438.503754,264.068176
	C438.017700,264.424255 437.531647,264.780304 437.049927,265.053894
	C437.049927,265.053894 437.124176,265.090057 436.396118,265.101776
	C435.933655,265.597504 435.471161,266.093231 434.775909,266.966583
	C434.775909,266.966583 434.351501,267.095703 434.068085,266.291260
	C433.378143,265.857849 432.688202,265.424469 431.539886,264.850006
	C431.212311,264.739349 430.991821,264.520660 430.794403,263.389618
	C427.076080,261.556274 423.395203,260.294617 419.753052,264.518097
	C419.444733,264.660797 419.136414,264.803497 418.068329,265.089752
	C417.384033,266.442566 416.123322,267.787933 416.105743,269.149353
	C415.950378,281.185272 415.953339,293.224854 416.110809,305.260712
	C416.126801,306.484039 417.464569,307.690094 418.620514,309.057709
	C418.892700,309.237946 419.052307,309.489594 419.198486,310.618378
	C423.245911,312.605103 427.239960,313.433258 431.039612,309.998871
	C431.039612,309.998871 431.092712,310.050201 431.570221,310.035553
	C431.570221,310.035553 432.043976,309.974823 432.525940,309.623322
	C432.669617,309.060181 432.813293,308.497040 433.000702,307.983032
	C433.000702,307.983032 432.934967,307.980042 433.533997,307.498718
	C434.352966,298.987274 435.171936,290.475861 435.998993,282.005859
	C435.998993,282.005859 435.960541,281.988312 436.874329,282.009766
	C439.916412,282.010834 442.958496,282.011902 445.997559,282.002441
	C445.997559,282.002441 445.987091,281.999451 445.975952,282.890106
	C446.320068,290.288788 446.558289,297.695343 447.107178,305.078796
	C447.204437,306.387634 448.595215,307.600311 450.023224,309.205139
	C454.637787,311.739319 459.187500,311.727051 464.500671,308.801666
	C464.974030,308.202454 465.852417,307.608154 465.859741,307.003296
	C465.964020,298.407806 466.086884,289.806885 465.831268,281.218384
	C465.788483,279.780487 463.980713,278.395081 462.776550,276.827423
	C462.776550,276.827423 462.812256,276.565460 462.891022,275.824158
	C462.235596,274.889465 461.580170,273.954742 460.992798,273.010284
	C460.992798,273.010284 460.960205,273.070770 460.940674,272.420746
	C460.495758,272.039856 460.050873,271.658936 459.721710,271.225220
	C459.721710,271.225220 459.686676,271.347504 459.664093,270.786102
	C459.377686,270.571869 459.091248,270.357666 458.923309,270.069275
M699.256653,288.340912
	C699.556519,288.547516 699.856384,288.754120 700.591125,289.074310
	C700.881897,289.224579 701.047974,289.462036 701.255981,290.325287
	C701.548645,290.549225 701.841248,290.773132 702.316650,291.284912
	C702.316650,291.284912 702.232239,291.615295 701.905884,292.179199
	C701.267456,292.759369 700.629089,293.339539 699.931824,294.189240
	C699.931824,294.189240 699.971802,294.462189 699.528870,294.779968
	C699.192871,294.915466 698.856873,295.050934 697.860168,295.305237
	C697.571167,295.869415 697.282227,296.433624 697.000000,297.000000
	C697.000000,297.000000 696.996094,296.993286 696.403992,297.273712
	C695.850342,298.840851 695.296631,300.408020 694.813599,302.647339
	C694.785217,303.096191 694.756836,303.545074 694.366333,304.376923
	C694.650208,304.877014 694.934021,305.377106 695.116760,305.895386
	C695.116760,305.895386 695.137695,305.794769 695.267090,306.329742
	C695.570312,306.512115 695.873596,306.694489 696.089905,306.901520
	C696.089905,306.901520 696.103455,306.812164 696.352356,307.378601
	C696.910461,307.581909 697.468567,307.785187 698.004700,308.005219
	C698.004700,308.005219 698.006470,307.978455 698.142944,308.701324
	C699.197571,308.976746 700.252136,309.252167 701.314453,309.811340
	C701.314453,309.811340 701.357727,309.530762 701.495422,310.281982
	C706.707397,311.163788 711.902588,312.553375 717.138062,312.727386
	C720.045105,312.824005 723.019653,310.891632 726.148438,309.666107
	C726.148438,309.666107 726.423950,309.702240 727.046143,309.738678
	C727.369995,309.496185 727.693848,309.253693 728.326965,308.588654
	C728.785339,308.358856 729.243774,308.129059 730.262939,307.754547
	C730.482422,307.449768 730.701843,307.144989 730.935913,306.927826
	C730.935913,306.927826 730.852173,306.898254 731.575195,306.856171
	C732.023315,305.867767 732.471497,304.879364 732.966431,303.959229
	C732.966431,303.959229 732.883728,303.960083 733.567871,303.659393
	C737.181946,297.828156 737.027283,292.682709 732.904175,288.641632
	C732.904175,288.641632 732.900818,288.257263 732.911926,287.567505
	C732.454956,287.161255 731.997986,286.755005 731.906311,286.200012
	C731.906311,286.200012 731.561096,286.390808 731.732849,285.668060
	C730.820129,285.112183 729.907410,284.556305 729.000000,284.000000
	C729.000000,284.000000 729.001099,284.004272 728.646606,283.512543
	C728.268494,283.394684 727.890442,283.276825 727.210693,283.190094
	C727.210693,283.190094 727.003296,282.968842 726.628174,282.481995
	C726.046021,282.357697 725.463928,282.233368 724.979370,282.000793
	C724.979370,282.000793 724.902832,282.124634 725.084167,281.402893
	C726.295776,279.214996 731.067139,280.150452 729.977478,275.985107
	C729.977478,275.985107 729.886536,275.923798 730.607910,275.864594
	C734.671814,271.471466 735.444641,267.648621 731.990479,265.867615
	C727.437134,263.519867 722.668518,260.585419 716.264038,262.797028
	C715.496155,262.748840 714.728271,262.700684 713.301697,262.228577
	C708.779541,262.144501 703.819702,260.653900 700.798401,266.506500
	C700.574707,266.774506 700.289551,266.928955 699.504150,267.167694
	C699.229919,267.362823 699.052979,267.623871 698.845642,268.421967
	C698.708130,268.745148 698.469971,268.953369 697.388428,269.142517
	C693.026917,276.179535 693.234924,281.620972 697.993591,285.994812
	C697.993591,285.994812 698.015991,285.962555 698.039612,286.591614
	C698.432007,287.028412 698.824402,287.465210 699.098633,287.909882
	C699.098633,287.909882 699.124023,287.794220 699.256653,288.340912
M518.518066,305.421967
	C518.666687,293.394226 518.843811,281.366577 518.893188,269.338409
	C518.896179,268.615082 517.879639,267.887512 517.000061,266.586975
	C512.869263,262.277649 506.125977,262.565247 501.413116,267.251770
	C492.276398,261.347015 482.995667,263.034698 475.486267,271.966492
	C467.807648,281.099670 468.103302,294.217773 476.195282,303.423462
	C483.354370,311.567902 493.070068,313.043030 501.511505,307.267273
	C507.180359,312.844727 514.800293,312.231750 518.518066,305.421967
M523.911987,267.366394
	C523.472168,268.402435 522.657227,269.435883 522.650024,270.474976
	C522.570068,281.932434 522.587036,293.391083 522.700195,304.848175
	C522.706848,305.519806 523.764832,306.181030 524.792664,307.386993
	C527.471863,312.407806 532.049805,311.148285 536.176575,310.545685
	C540.311279,309.941895 540.390869,306.439880 540.464722,303.185974
	C540.604431,297.030884 540.440918,290.844971 541.068909,284.740356
	C541.243652,283.041595 543.910950,280.199890 545.158936,280.339966
	C547.014709,280.548279 549.049927,282.673859 550.200989,284.494293
	C551.070190,285.868835 550.791687,288.041016 550.819824,289.861359
	C550.891907,294.523834 550.954163,299.190979 550.824158,303.850800
	C550.698059,308.369659 552.713745,310.573669 557.234497,310.939301
	C564.675293,311.541138 566.962830,309.585419 566.999146,302.155151
	C567.012939,299.323761 566.977844,296.492035 567.007874,293.660889
	C567.039734,290.665192 566.540466,287.491455 567.385498,284.736694
	C567.960449,282.862732 570.484863,280.325317 572.072571,280.370392
	C573.735046,280.417603 575.820007,282.945343 576.785278,284.860229
	C577.602417,286.481293 577.129333,288.774841 577.148438,290.771545
	C577.193054,295.434509 576.982605,300.110504 577.264099,304.757690
	C577.555420,309.566010 580.039001,311.118591 586.082275,311.001373
	C590.305786,310.919434 593.262329,309.497986 593.225342,304.680450
	C593.164001,296.687866 593.462280,288.668274 592.902588,280.709747
	C592.165710,270.232086 585.717712,263.125702 576.913330,263.813538
	C572.166138,264.184387 567.620911,267.140472 562.379028,269.163910
	C554.957703,261.853363 548.222168,261.242737 540.616272,268.176178
	C536.588440,262.348114 528.905823,261.869690 523.911987,267.366394
M350.026489,324.455994
	C350.708435,330.016907 355.308838,330.972626 359.431580,331.784485
	C363.176636,332.521973 364.807556,329.494995 366.173004,326.406494
	C373.824585,309.099152 381.627075,291.858490 389.266693,274.545898
	C391.685272,269.065033 390.590454,266.434479 385.491882,264.171722
	C379.869171,261.676361 377.248596,262.558838 374.717163,267.940765
	C371.959808,273.802917 369.284943,279.703827 366.242889,286.306763
	C362.161499,279.423798 358.553253,273.281067 354.886627,267.173401
	C351.924530,262.239319 348.684235,261.484894 343.718414,264.476044
	C338.850525,267.408203 338.041901,270.181122 340.925934,275.124207
	C345.783051,283.449097 350.646759,291.775391 355.762299,299.941559
	C357.708984,303.049164 358.236084,305.560120 356.356171,309.034668
	C353.841766,313.681946 352.149872,318.774200 350.026489,324.455994
M673.725952,267.511139
	C673.582214,280.144165 673.245361,292.779541 673.398926,305.408936
	C673.452942,309.852905 676.211853,311.174713 682.194580,311.006042
	C686.423218,310.886780 689.293762,309.493134 689.286011,304.653992
	C689.268616,293.830597 689.361572,283.006927 689.311279,272.183807
	C689.296936,269.085968 689.841553,265.117340 685.773010,264.346130
	C681.761292,263.585785 677.114807,262.089447 673.725952,267.511139
M682.326050,257.885223
	C688.784302,256.901764 690.268677,254.484299 689.232117,247.013809
	C688.807861,243.956177 687.301147,242.009995 684.180786,241.991455
	C680.558411,241.969910 676.258911,240.417603 673.994873,244.843918
	C670.627014,251.428375 674.132629,257.386536 682.326050,257.885223
z"/>
<path fill="#FDF345" opacity="1.000000" stroke="none"
	d="
M894.181274,709.658875
	C890.708618,720.145935 888.670349,731.407166 883.503784,740.979980
	C865.507080,774.325073 837.063232,793.742615 799.656860,799.763489
	C793.769348,800.711182 787.695862,800.786499 781.708252,800.788025
	C594.891541,800.835571 408.074860,800.834229 221.258148,800.811890
	C185.799850,800.807617 156.007751,787.970520 132.716415,760.982422
	C119.134972,745.245300 110.690002,727.023193 107.743469,705.539734
	C107.583481,700.408447 107.972672,697.842834 113.819702,697.846802
	C372.304321,698.022522 630.789124,697.999451 889.273865,698.011719
	C891.039062,698.011841 892.804260,698.174683 894.181213,698.242432
	C894.181213,702.446045 894.181213,706.052490 894.181274,709.658875
z"/>
<path fill="#F8F164" opacity="1.000000" stroke="none"
	d="
M793.051575,201.233124
	C791.278931,201.489914 789.506287,201.971329 787.733582,201.971634
	C596.555054,202.004501 405.376556,202.001892 214.198029,201.988998
	C212.709686,201.988892 211.221329,201.819870 209.394470,201.502991
	C211.498962,201.074295 213.941956,200.872345 217.125336,200.571320
	C222.363235,200.471985 226.860764,200.471481 231.358292,200.471481
	C413.772095,200.471436 596.185852,200.465607 778.599670,200.503342
	C783.417053,200.504349 788.234253,200.979233 793.051575,201.233124
z"/>
<path fill="#D8CF56" opacity="1.000000" stroke="none"
	d="
M109.461060,344.849854
	C110.937820,344.499664 112.874344,344.023407 114.810936,344.023163
	C372.670135,343.990295 630.529358,343.994537 888.388550,343.982605
	C896.994812,343.982208 895.979065,344.895203 896.056458,336.161011
	C896.131714,327.673950 896.194702,319.186737 896.491455,310.360352
	C896.719788,321.476196 896.719788,332.931274 896.719788,344.720703
	C895.264343,344.808746 893.819946,344.972595 892.375610,344.972656
	C632.057190,344.982910 371.738708,344.981567 111.420280,344.979156
	C110.920471,344.979156 110.420670,344.957550 109.461060,344.849854
z"/>
<path fill="#F7EF6C" opacity="1.000000" stroke="none"
	d="
M894.483398,709.347473
	C894.181213,706.052490 894.181213,702.446045 894.181213,698.242432
	C892.804260,698.174683 891.039062,698.011841 889.273865,698.011719
	C630.789124,697.999451 372.304321,698.022522 113.819702,697.846802
	C107.972672,697.842834 107.583481,700.408447 107.876076,705.162720
	C107.295845,702.941833 106.765091,700.228516 106.173538,697.204407
	C369.743958,697.204407 632.734131,697.204407 896.458801,697.204407
	C895.879517,701.300659 895.332581,705.168335 894.483398,709.347473
z"/>
<path fill="#201F01" opacity="1.000000" stroke="none"
	d="
M793.466309,201.175964
	C788.234253,200.979233 783.417053,200.504349 778.599670,200.503342
	C596.185852,200.465607 413.772095,200.471436 231.358292,200.471481
	C226.860764,200.471481 222.363235,200.471985 217.474457,200.383957
	C218.746292,199.860428 220.409271,199.044510 222.072464,199.044006
	C409.349945,198.987854 596.627563,198.924942 783.904663,199.183151
	C793.791138,199.196808 804.111511,199.082901 813.737183,203.829056
	C807.244202,203.141373 800.562683,202.130081 793.466309,201.175964
z"/>
<path fill="#D8CF56" opacity="1.000000" stroke="none"
	d="
M106.683037,301.367767
	C107.205070,302.198364 107.886017,303.415131 107.866425,304.620514
	C107.653900,317.699738 107.331451,330.777161 107.069557,344.307190
	C106.655518,344.039581 105.815788,343.314850 105.824745,342.600800
	C105.995682,328.982666 106.266533,315.365784 106.683037,301.367767
z"/>
<path fill="#201F01" opacity="1.000000" stroke="none"
	d="
M820.653015,206.106293
	C818.623962,205.868393 816.503784,205.252991 814.130371,204.377335
	C816.105408,204.654312 818.333679,205.191559 820.653015,206.106293
z"/>
<path fill="#D8CF56" opacity="1.000000" stroke="none"
	d="
M108.488419,289.756775
	C108.608459,291.110474 108.480965,292.795105 108.004852,294.708496
	C107.851120,293.320740 108.046005,291.704224 108.488419,289.756775
z"/>
<path fill="#201F01" opacity="1.000000" stroke="none"
	d="
M826.901367,208.403961
	C825.767639,208.349609 824.539673,207.955765 823.096191,207.319427
	C824.189453,207.406128 825.498291,207.735306 826.901367,208.403961
z"/>
<path fill="#D8CF56" opacity="1.000000" stroke="none"
	d="
M107.358582,295.692078
	C107.550598,296.391541 107.538147,297.409271 107.263512,298.712830
	C107.052254,298.002502 107.103180,297.006439 107.358582,295.692078
z"/>
<path fill="#201F01" opacity="1.000000" stroke="none"
	d="
M830.758118,210.179688
	C830.039856,210.198273 829.192932,209.866821 828.109558,209.288589
	C828.791931,209.304413 829.710632,209.567032 830.758118,210.179688
z"/>
<path fill="#201F01" opacity="1.000000" stroke="none"
	d="
M822.785889,206.847519
	C822.353516,207.033249 821.732788,206.939545 820.895508,206.615097
	C821.318481,206.445602 821.958069,206.506851 822.785889,206.847519
z"/>
<path fill="#D8CF56" opacity="1.000000" stroke="none"
	d="
M896.486267,306.586487
	C896.238037,306.324127 896.110840,305.812164 896.073486,305.040649
	C896.311340,305.299713 896.459351,305.818329 896.486267,306.586487
z"/>
<path fill="#201F16" opacity="1.000000" stroke="none"
	d="
M318.303345,307.243591
	C318.535095,306.950012 318.561493,306.639008 318.303070,305.655579
	C318.223633,295.138092 318.223633,285.275635 318.223633,275.413147
	C317.884003,275.351929 317.544403,275.290680 317.204773,275.229462
	C316.148804,276.830841 315.092834,278.432251 314.036865,280.033630
	C314.036865,280.033630 314.000000,280.001221 313.757324,280.160583
	C313.259430,280.842865 313.004181,281.365723 312.748962,281.888611
	C312.748962,281.888611 312.884491,281.899139 312.619263,281.945312
	C312.220032,282.323944 312.086029,282.656342 311.952026,282.988770
	C311.952026,282.988770 312.004578,282.995789 311.717163,283.123108
	C310.909637,284.134613 310.389496,285.018768 309.869354,285.902954
	C309.869354,285.902954 309.966156,285.957520 309.695251,286.013214
	C309.292847,286.386475 309.161316,286.704041 309.029816,287.021606
	C309.029816,287.021606 308.998779,287.001221 308.755432,287.163879
	C308.236267,287.842499 307.960419,288.358398 307.684570,288.874298
	C300.736450,296.427887 296.333923,296.195007 290.166809,287.921722
	C288.281219,285.392212 286.446289,282.824951 284.258118,279.850220
	C283.672546,279.218475 283.417023,279.011505 283.161530,278.804565
	C283.161530,278.804565 283.002441,278.997559 282.902069,278.604431
	C282.105988,277.245911 281.410278,276.280548 279.926605,274.221771
	C279.926605,285.946228 279.926605,296.407532 279.926605,306.868835
	C279.926605,306.868835 279.875214,306.907806 279.666809,307.119690
	C279.290497,307.859680 279.122620,308.387756 278.954742,308.915863
	C276.267181,309.561096 273.583893,310.720886 270.891174,310.743256
	C265.481384,310.788208 263.895355,308.948334 263.878265,303.386383
	C263.828094,287.062592 263.826874,270.738434 263.882935,254.414658
	C263.893982,251.197327 263.106018,247.517395 267.353394,245.968399
	C271.912079,244.305893 277.670868,245.694443 280.424591,249.276703
	C286.500061,257.180115 292.516449,265.128937 299.026825,273.676117
	C305.511566,265.208435 311.727081,257.092224 318.302704,248.538452
	C318.841278,247.767075 319.019745,247.433258 319.198212,247.099457
	C319.198212,247.099457 319.082458,247.084229 319.371948,247.055176
	C319.916595,246.740280 320.171722,246.454437 320.426849,246.168594
	C320.426849,246.168594 320.758942,246.170883 321.263367,246.052551
	C325.168793,245.967850 328.569763,246.001480 331.970764,246.035095
	C332.457672,246.598831 332.944580,247.162552 333.719055,248.339142
	C334.163177,249.936646 334.453796,250.920959 334.456360,251.906006
	C334.500000,268.698486 334.559265,285.491394 334.462921,302.283325
	C334.449921,304.546692 333.614075,306.805359 333.159241,309.066193
	C333.159271,309.066193 333.041595,309.081238 332.727173,309.315002
	C328.331757,309.618988 324.250793,309.689209 320.169800,309.759460
	C320.169800,309.759460 320.139099,309.867432 320.094543,309.604370
	C319.745422,309.155060 319.440857,308.968811 319.136261,308.782562
	C319.136261,308.782562 319.103302,308.902496 319.094757,308.581207
	C318.825256,307.921143 318.564301,307.582367 318.303345,307.243591
z"/>
<path fill="#1F1E16" opacity="1.000000" stroke="none"
	d="
M524.621826,267.180115
	C528.905823,261.869690 536.588440,262.348114 540.616272,268.176178
	C548.222168,261.242737 554.957703,261.853363 562.379028,269.163910
	C567.620911,267.140472 572.166138,264.184387 576.913330,263.813538
	C585.717712,263.125702 592.165710,270.232086 592.902588,280.709747
	C593.462280,288.668274 593.164001,296.687866 593.225342,304.680450
	C593.262329,309.497986 590.305786,310.919434 586.082275,311.001373
	C580.039001,311.118591 577.555420,309.566010 577.264099,304.757690
	C576.982605,300.110504 577.193054,295.434509 577.148438,290.771545
	C577.129333,288.774841 577.602417,286.481293 576.785278,284.860229
	C575.820007,282.945343 573.735046,280.417603 572.072571,280.370392
	C570.484863,280.325317 567.960449,282.862732 567.385498,284.736694
	C566.540466,287.491455 567.039734,290.665192 567.007874,293.660889
	C566.977844,296.492035 567.012939,299.323761 566.999146,302.155151
	C566.962830,309.585419 564.675293,311.541138 557.234497,310.939301
	C552.713745,310.573669 550.698059,308.369659 550.824158,303.850800
	C550.954163,299.190979 550.891907,294.523834 550.819824,289.861359
	C550.791687,288.041016 551.070190,285.868835 550.200989,284.494293
	C549.049927,282.673859 547.014709,280.548279 545.158936,280.339966
	C543.910950,280.199890 541.243652,283.041595 541.068909,284.740356
	C540.440918,290.844971 540.604431,297.030884 540.464722,303.185974
	C540.390869,306.439880 540.311279,309.941895 536.176575,310.545685
	C532.049805,311.148285 527.471863,312.407806 524.552246,306.660767
	C524.415161,293.016418 524.518494,280.098267 524.621826,267.180115
z"/>
<path fill="#1F1E16" opacity="1.000000" stroke="none"
	d="
M517.873169,305.951111
	C514.800293,312.231750 507.180359,312.844727 501.511505,307.267273
	C493.070068,313.043030 483.354370,311.567902 476.195282,303.423462
	C468.103302,294.217773 467.807648,281.099670 475.486267,271.966492
	C482.995667,263.034698 492.276398,261.347015 501.413116,267.251770
	C506.125977,262.565247 512.869263,262.277649 517.229248,267.331238
	C517.596619,280.700714 517.734863,293.325897 517.873169,305.951111
M489.801270,280.997925
	C487.012390,283.215546 484.826904,286.149658 486.828094,289.460907
	C488.174408,291.688538 491.188232,294.156586 493.498505,294.198944
	C495.764709,294.240540 498.944214,291.803467 500.105469,289.601288
	C501.013123,287.880096 500.044098,284.493805 498.839172,282.490967
	C496.991791,279.420227 493.694672,279.355652 489.801270,280.997925
z"/>
<path fill="#1F1E16" opacity="1.000000" stroke="none"
	d="
M350.065613,324.065674
	C352.149872,318.774200 353.841766,313.681946 356.356171,309.034668
	C358.236084,305.560120 357.708984,303.049164 355.762299,299.941559
	C350.646759,291.775391 345.783051,283.449097 340.925934,275.124207
	C338.041901,270.181122 338.850525,267.408203 343.718414,264.476044
	C348.684235,261.484894 351.924530,262.239319 354.886627,267.173401
	C358.553253,273.281067 362.161499,279.423798 366.242889,286.306763
	C369.284943,279.703827 371.959808,273.802917 374.717163,267.940765
	C377.248596,262.558838 379.869171,261.676361 385.491882,264.171722
	C390.590454,266.434479 391.685272,269.065033 389.266693,274.545898
	C381.627075,291.858490 373.824585,309.099152 366.173004,326.406494
	C364.807556,329.494995 363.176636,332.521973 359.431580,331.784485
	C355.308838,330.972626 350.708435,330.016907 350.065613,324.065674
z"/>
<path fill="#1F1E16" opacity="1.000000" stroke="none"
	d="
M602.167297,273.057648
	C602.500122,272.973907 602.733643,272.774078 603.164062,272.141205
	C603.613770,271.536713 603.767090,271.249146 603.920410,270.961578
	C603.920410,270.961578 603.992798,270.988495 604.252380,270.830566
	C605.341125,269.779510 606.170227,268.886414 606.999329,267.993347
	C606.999329,267.993317 607.000000,268.000000 607.262329,267.956787
	C607.731812,267.635712 607.938965,267.357849 608.146057,267.079956
	C608.146057,267.079956 608.058838,267.050690 608.404175,267.007446
	C610.490601,265.974579 612.231628,264.984985 613.972656,263.995392
	C613.972656,263.995392 613.992065,264.008484 614.419312,264.009613
	C621.221924,264.047028 627.597290,264.083313 633.972717,264.119629
	C633.972717,264.119629 634.121033,264.307556 634.440796,264.523987
	C635.163574,264.852539 635.566467,264.964630 635.969421,265.076691
	C635.969421,265.076691 635.985779,265.004333 636.130615,265.316833
	C644.687134,271.408539 647.290833,279.488251 643.777527,288.909576
	C643.441956,288.988647 643.218262,289.191223 642.812744,289.834412
	C642.319458,290.423553 642.119934,290.695587 641.920471,290.967651
	C641.920471,290.967651 641.983826,290.994965 641.706543,290.999359
	C641.199890,291.271576 640.970520,291.539368 640.741089,291.807190
	C640.741089,291.807159 640.858643,291.833435 640.436035,291.854675
	C632.157593,292.309418 624.301697,292.742950 615.194641,293.245514
	C617.407532,294.914703 618.707703,296.710632 620.136230,296.819275
	C624.326843,297.138031 628.569153,296.699982 632.790100,296.727539
	C635.455322,296.744995 638.118530,297.065399 640.782654,297.249908
	C640.782654,297.249908 640.821289,297.146179 640.836670,297.439850
	C641.229492,298.164215 641.606873,298.594940 641.984253,299.025635
	C641.984253,299.025635 642.002930,299.004028 642.032837,299.398621
	C642.401367,301.860352 642.739929,303.927521 643.078491,305.994690
	C643.078491,305.994690 642.868896,306.314728 642.625366,306.641174
	C642.243286,307.308838 642.104675,307.650085 641.966064,307.991333
	C641.966064,307.991333 642.003418,308.001343 641.748535,308.066193
	C641.307495,308.412811 641.121277,308.694580 640.935059,308.976379
	C640.935059,308.976379 640.992920,309.000977 640.635620,309.061829
	C638.282227,309.973602 636.286011,310.824493 634.289856,311.675385
	C634.289856,311.675385 634.171631,311.520538 633.608459,311.541565
	C624.376465,312.651398 615.917908,312.302002 608.050903,307.907532
	C608.050903,307.907532 608.026123,307.991699 607.902100,307.693542
	C606.702393,306.457092 605.626770,305.518768 604.551086,304.580444
	C604.551086,304.580444 604.425049,304.674408 604.335327,304.351990
	C603.852173,303.653809 603.458679,303.278015 603.065247,302.902252
	C603.065247,302.902252 603.012024,302.975189 602.979797,302.605591
	C596.910828,292.664368 597.415771,282.917786 602.167297,273.057648
M625.203613,284.019836
	C626.551697,283.015472 627.899841,282.011078 629.247925,281.006683
	C627.876770,279.786896 626.687622,277.928345 625.097961,277.475616
	C621.388306,276.419037 617.405212,279.582245 616.335693,284.019562
	C619.018250,284.019562 621.654297,284.019562 625.203613,284.019836
z"/>
<path fill="#212016" opacity="1.000000" stroke="none"
	d="
M463.664429,308.857666
	C459.187500,311.727051 454.637787,311.739319 449.583679,308.635162
	C448.869354,301.945068 448.786987,295.807343 448.229614,289.713074
	C447.990234,287.095398 446.764648,284.567902 445.987091,281.999451
	C445.987091,281.999451 445.997559,282.002441 445.822266,281.672668
	C442.273193,279.382812 439.000397,278.937469 435.960541,281.988312
	C435.960541,281.988312 435.998993,282.005859 435.651215,282.138458
	C434.636780,284.923126 433.564209,287.548370 433.386475,290.232788
	C432.995911,296.132629 433.057770,302.062469 432.934967,307.980042
	C432.934967,307.980042 433.000702,307.983032 432.754150,308.105103
	C432.354767,308.545074 432.201965,308.863007 431.843658,309.267883
	C431.387512,309.532654 431.205719,309.764465 431.092712,310.050201
	C431.092712,310.050201 431.039612,309.998871 430.638031,310.065765
	C426.524078,310.026001 422.811707,309.919312 419.099335,309.812653
	C419.052307,309.489594 418.892700,309.237946 418.338074,308.570435
	C417.876923,294.767487 417.667542,281.452026 417.577911,268.135742
	C417.570740,267.075439 418.391876,266.009521 418.828094,264.946228
	C419.136414,264.803497 419.444733,264.660797 420.353210,264.288055
	C424.261719,264.103333 427.570099,264.148651 430.878479,264.193970
	C430.991821,264.520660 431.212311,264.739349 431.841187,265.198090
	C432.878815,266.062683 433.615173,266.579193 434.351501,267.095703
	C434.351501,267.095703 434.775909,266.966583 435.206604,266.661560
	C436.132904,265.934387 436.628540,265.512207 437.124176,265.090057
	C437.124176,265.090057 437.049927,265.053894 437.356842,265.070679
	C438.157135,264.757141 438.650513,264.426819 439.143890,264.096497
	C439.143890,264.096497 439.575195,264.091797 440.218323,264.030151
	C444.581390,264.321381 448.301331,264.674255 452.021240,265.027100
	C452.021240,265.027100 452.162872,265.225037 452.457611,265.465637
	C453.150726,265.842957 453.549133,265.979645 453.947510,266.116333
	C453.947510,266.116333 453.963196,266.026215 454.086914,266.319824
	C455.076385,267.156464 455.942169,267.699493 456.807953,268.242554
	C456.807953,268.242554 456.847046,268.148590 456.889954,268.416016
	C457.244995,268.861176 457.557129,269.038940 457.869263,269.216705
	C457.869263,269.216705 457.888977,269.112549 457.923645,269.377380
	C458.255920,269.824432 458.553528,270.006683 458.851105,270.188965
	C458.851105,270.188965 458.923309,270.069275 458.931335,270.360901
	C459.188477,270.884216 459.437561,271.115875 459.686676,271.347504
	C459.686676,271.347504 459.721710,271.225220 459.749298,271.533142
	C460.171326,272.250977 460.565765,272.660858 460.960205,273.070770
	C460.960205,273.070770 460.992798,273.010284 461.025726,273.348999
	C461.643188,274.646973 462.227722,275.606232 462.812256,276.565460
	C462.812256,276.565460 462.776550,276.827423 462.899658,277.330719
	C463.236664,288.175232 463.450531,298.516449 463.664429,308.857666
z"/>
<path fill="#201F15" opacity="1.000000" stroke="none"
	d="
M701.089355,289.786743
	C701.047974,289.462036 700.881897,289.224579 700.284058,288.755981
	C699.692688,288.223145 699.408325,288.008698 699.124023,287.794220
	C699.124023,287.794220 699.098633,287.909882 699.112915,287.607941
	C698.756775,286.858185 698.386353,286.410370 698.015991,285.962555
	C698.015991,285.962555 697.993591,285.994812 697.971619,285.597412
	C695.849976,279.791229 695.808960,274.405640 698.131287,269.046631
	C698.469971,268.953369 698.708130,268.745148 699.144592,268.107880
	C699.742859,267.599640 699.909302,267.324951 699.942871,266.969788
	C700.289551,266.928955 700.574707,266.774506 701.266663,266.197815
	C705.810059,264.810242 709.885254,263.731384 713.960388,262.652496
	C714.728271,262.700684 715.496155,262.748840 717.044128,262.862183
	C720.232544,263.382416 722.714233,263.604370 725.035889,264.334961
	C733.016785,266.846497 733.548401,268.243835 729.886536,275.923798
	C729.886536,275.923798 729.977478,275.985107 729.620605,276.100708
	C726.892944,276.468384 724.412537,277.283020 722.176086,276.846710
	C718.389343,276.107910 714.755798,274.539062 711.140503,276.831635
	C711.007507,277.431610 710.874573,278.031586 710.741577,278.631592
	C715.461975,279.795929 720.182434,280.960297 724.902832,282.124634
	C724.902832,282.124634 724.979370,282.000793 725.116943,282.294678
	C725.837402,282.715302 726.420349,282.842072 727.003296,282.968842
	C727.003296,282.968842 727.210693,283.190094 727.535156,283.423859
	C728.240112,283.773193 728.620605,283.888733 729.001099,284.004272
	C729.001099,284.004272 729.000000,284.000000 729.137878,284.262817
	C730.037537,285.147400 730.799316,285.769104 731.561096,286.390808
	C731.561096,286.390808 731.906311,286.200012 731.827271,286.558319
	C732.132385,287.363495 732.516602,287.810364 732.900818,288.257263
	C732.900818,288.257263 732.904175,288.641632 733.027954,289.216370
	C733.062378,294.514069 732.973022,299.237091 732.883728,303.960083
	C732.883728,303.960083 732.966431,303.959229 732.683105,304.096008
	C731.883911,305.121277 731.368042,306.009766 730.852173,306.898254
	C730.852173,306.898254 730.935913,306.927826 730.656067,306.969269
	C730.151489,307.306915 729.926819,307.603088 729.702148,307.899292
	C729.243774,308.129059 728.785339,308.358856 727.868530,308.822327
	C727.081421,309.271454 726.752686,309.486847 726.423950,309.702271
	C726.423950,309.702240 726.148438,309.666107 725.640747,309.774597
	C717.170959,312.259949 709.243469,312.306702 701.357727,309.530762
	C701.357727,309.530762 701.314453,309.811340 701.078735,309.466003
	C699.897522,308.739929 698.952026,308.359192 698.006470,307.978455
	C698.006470,307.978455 698.004700,308.005219 697.852905,307.751556
	C697.168579,307.269318 696.635986,307.040741 696.103455,306.812134
	C696.103455,306.812164 696.089905,306.901520 696.047668,306.635620
	C695.716187,306.178101 695.426941,305.986420 695.137695,305.794769
	C695.137695,305.794769 695.116760,305.895386 695.124207,305.562805
	C694.997253,304.818115 694.862793,304.406036 694.728394,303.993958
	C694.756836,303.545074 694.785217,303.096191 694.923584,301.999634
	C695.687744,299.899017 696.341919,298.446167 696.996094,296.993286
	C696.996094,296.993286 697.000000,297.000000 697.262878,296.851410
	C697.857483,296.197357 698.189148,295.691925 698.520874,295.186462
	C698.856873,295.050934 699.192871,294.915466 700.037476,294.649750
	C700.904480,294.392761 701.263000,294.266022 702.002686,294.302765
	C703.946106,294.969910 705.508301,295.473511 707.299072,296.198059
	C708.317261,296.697174 709.106873,296.975372 709.896057,297.200562
	C709.895630,297.147583 709.799622,297.192474 709.971130,297.436249
	C711.095276,297.846283 712.047913,298.012573 713.299255,298.366730
	C714.737366,298.409393 715.876831,298.264160 717.365479,298.110107
	C718.097839,297.691071 718.480957,297.280823 718.864075,296.870544
	C718.293823,296.452271 717.723572,296.033997 716.930115,295.428375
	C716.133667,295.188660 715.560486,295.136292 714.640625,294.952118
	C711.866394,294.226959 709.438721,293.633636 706.667114,292.912964
	C704.959473,292.395508 703.595825,292.005402 702.232239,291.615295
	C702.232239,291.615295 702.316650,291.284912 702.231018,290.832245
	C701.793396,290.181976 701.441345,289.984344 701.089355,289.786743
z"/>
<path fill="#201F16" opacity="1.000000" stroke="none"
	d="
M673.844238,267.101196
	C677.114807,262.089447 681.761292,263.585785 685.773010,264.346130
	C689.841553,265.117340 689.296936,269.085968 689.311279,272.183807
	C689.361572,283.006927 689.268616,293.830597 689.286011,304.653992
	C689.293762,309.493134 686.423218,310.886780 682.194580,311.006042
	C676.211853,311.174713 673.452942,309.852905 673.398926,305.408936
	C673.245361,292.779541 673.582214,280.144165 673.844238,267.101196
z"/>
<path fill="#232212" opacity="1.000000" stroke="none"
	d="
M681.906860,257.892914
	C674.132629,257.386536 670.627014,251.428375 673.994873,244.843918
	C676.258911,240.417603 680.558411,241.969910 684.180786,241.991455
	C687.301147,242.009995 688.807861,243.956177 689.232117,247.013809
	C690.268677,254.484299 688.784302,256.901764 681.906860,257.892914
z"/>
<path fill="#F1E961" opacity="1.000000" stroke="none"
	d="
M333.562073,309.031097
	C333.614075,306.805359 334.449921,304.546692 334.462921,302.283325
	C334.559265,285.491394 334.500000,268.698486 334.456360,251.906006
	C334.453796,250.920959 334.163177,249.936646 333.959473,248.483551
	C334.604553,249.283264 335.890167,250.547012 335.899628,251.820267
	C336.031982,269.591583 336.031921,287.364471 335.903046,305.135834
	C335.893707,306.427155 334.640045,307.709473 333.562073,309.031097
z"/>
<path fill="#E9E45B" opacity="1.000000" stroke="none"
	d="
M640.820068,296.892487
	C638.118530,297.065399 635.455322,296.744995 632.790100,296.727539
	C628.569153,296.699982 624.326843,297.138031 620.136230,296.819275
	C618.707703,296.710632 617.407532,294.914703 615.194641,293.245514
	C624.301697,292.742950 632.157593,292.309418 640.421997,291.796082
	C640.839478,293.322540 640.848450,294.928802 640.820068,296.892487
z"/>
<path fill="#E9E45B" opacity="1.000000" stroke="none"
	d="
M724.993530,281.763763
	C720.182434,280.960297 715.461975,279.795929 710.741577,278.631592
	C710.874573,278.031586 711.007507,277.431610 711.140503,276.831635
	C714.755798,274.539062 718.389343,276.107910 722.176086,276.846710
	C724.412537,277.283020 726.892944,276.468384 729.591431,276.054291
	C731.067139,280.150452 726.295776,279.214996 724.993530,281.763763
z"/>
<path fill="#E9E362" opacity="1.000000" stroke="none"
	d="
M464.082550,308.829651
	C463.450531,298.516449 463.236664,288.175232 463.005615,277.409729
	C463.980713,278.395081 465.788483,279.780487 465.831268,281.218384
	C466.086884,289.806885 465.964020,298.407806 465.859741,307.003296
	C465.852417,307.608154 464.974030,308.202454 464.082550,308.829651
z"/>
<path fill="#E9E45B" opacity="1.000000" stroke="none"
	d="
M601.798584,273.088867
	C597.415771,282.917786 596.910828,292.664368 603.022217,302.590210
	C601.859558,301.627777 600.229736,300.508484 599.451721,298.960938
	C595.755310,291.608459 596.975342,283.928802 598.589294,276.347748
	C598.849426,275.125671 600.449341,274.188782 601.798584,273.088867
z"/>
<path fill="#E9E362" opacity="1.000000" stroke="none"
	d="
M418.448212,265.018005
	C418.391876,266.009521 417.570740,267.075439 417.577911,268.135742
	C417.667542,281.452026 417.876923,294.767487 418.122314,308.493652
	C417.464569,307.690094 416.126801,306.484039 416.110809,305.260712
	C415.953339,293.224854 415.950378,281.185272 416.105743,269.149353
	C416.123322,267.787933 417.384033,266.442566 418.448212,265.018005
z"/>
<path fill="#E9E45B" opacity="1.000000" stroke="none"
	d="
M608.086914,308.266388
	C615.917908,312.302002 624.376465,312.651398 633.513306,311.562378
	C633.512329,312.222382 633.106567,313.399200 632.564880,313.465454
	C623.907227,314.524597 615.411865,314.548218 608.086914,308.266388
z"/>
<path fill="#F1EB66" opacity="1.000000" stroke="none"
	d="
M433.234497,307.739380
	C433.057770,302.062469 432.995911,296.132629 433.386475,290.232788
	C433.564209,287.548370 434.636780,284.923126 435.647156,282.117737
	C435.171936,290.475861 434.352966,298.987274 433.234497,307.739380
z"/>
<path fill="#E9E45B" opacity="1.000000" stroke="none"
	d="
M644.168213,288.867798
	C647.290833,279.488251 644.687134,271.408539 636.101501,265.339844
	C645.426819,267.511017 649.901733,279.837463 644.168213,288.867798
z"/>
<path fill="#E9E45B" opacity="1.000000" stroke="none"
	d="
M730.247192,275.894196
	C733.548401,268.243835 733.016785,266.846497 725.035889,264.334961
	C722.714233,263.604370 720.232544,263.382416 717.426636,262.812408
	C722.668518,260.585419 727.437134,263.519867 731.990479,265.867615
	C735.444641,267.648621 734.671814,271.471466 730.247192,275.894196
z"/>
<path fill="#F7EF6C" opacity="1.000000" stroke="none"
	d="
M524.266907,267.273254
	C524.518494,280.098267 524.415161,293.016418 524.322693,306.390839
	C523.764832,306.181030 522.706848,305.519806 522.700195,304.848175
	C522.587036,293.391083 522.570068,281.932434 522.650024,270.474976
	C522.657227,269.435883 523.472168,268.402435 524.266907,267.273254
z"/>
<path fill="#EDE76A" opacity="1.000000" stroke="none"
	d="
M314.446991,280.050354
	C315.092834,278.432251 316.148804,276.830841 317.204773,275.229462
	C317.544403,275.290680 317.884003,275.351929 318.223633,275.413147
	C318.223633,285.275635 318.223633,295.138092 318.161865,305.454224
	C317.729187,302.205017 317.215179,298.509399 317.028015,294.797302
	C316.843628,291.140350 317.172699,287.452789 316.893768,283.807922
	C316.794952,282.516571 315.568695,281.311554 314.446991,280.050354
z"/>
<path fill="#F7EF6C" opacity="1.000000" stroke="none"
	d="
M518.195618,305.686523
	C517.734863,293.325897 517.596619,280.700714 517.397949,267.618713
	C517.879639,267.887512 518.896179,268.615082 518.893188,269.338409
	C518.843811,281.366577 518.666687,293.394226 518.195618,305.686523
z"/>
<path fill="#E1D95B" opacity="1.000000" stroke="none"
	d="
M701.426575,309.906372
	C709.243469,312.306702 717.170959,312.259949 725.548401,309.878387
	C723.019653,310.891632 720.045105,312.824005 717.138062,312.727386
	C711.902588,312.553375 706.707397,311.163788 701.426575,309.906372
z"/>
<path fill="#E9E45B" opacity="1.000000" stroke="none"
	d="
M714.987244,295.083954
	C715.560486,295.136292 716.133667,295.188660 716.893311,295.844727
	C717.058594,297.005280 717.037415,297.562103 717.016235,298.118927
	C715.876831,298.264160 714.737366,298.409393 713.149597,298.105164
	C711.734009,297.501282 710.766846,297.346863 709.799622,297.192474
	C709.799622,297.192474 709.895630,297.147583 709.746216,296.899170
	C708.754761,296.426239 707.912659,296.201691 707.070557,295.977142
	C705.508301,295.473511 703.946106,294.969910 701.807983,294.240753
	C700.818298,293.983368 700.404480,293.951538 699.990662,293.919708
	C700.629089,293.339539 701.267456,292.759369 702.069092,291.897247
	C703.595825,292.005402 704.959473,292.395508 706.885254,293.179260
	C709.960754,294.076599 712.473999,294.580261 714.987244,295.083954
z"/>
<path fill="#F1EA7E" opacity="1.000000" stroke="none"
	d="
M280.247009,306.615906
	C279.926605,296.407532 279.926605,285.946228 279.926605,274.221771
	C281.410278,276.280548 282.105988,277.245911 282.985474,278.511200
	C282.460052,280.422089 281.213287,282.006989 281.133667,283.648468
	C280.766876,291.211365 280.725494,298.790009 280.247009,306.615906
z"/>
<path fill="#F1EB66" opacity="1.000000" stroke="none"
	d="
M445.981506,282.444763
	C446.764648,284.567902 447.990234,287.095398 448.229614,289.713074
	C448.786987,295.807343 448.869354,301.945068 449.266418,308.461273
	C448.595215,307.600311 447.204437,306.387634 447.107178,305.078796
	C446.558289,297.695343 446.320068,290.288788 445.981506,282.444763
z"/>
<path fill="#E9E45B" opacity="1.000000" stroke="none"
	d="
M697.759888,269.094574
	C695.808960,274.405640 695.849976,279.791229 697.991028,285.594849
	C693.234924,281.620972 693.026917,276.179535 697.759888,269.094574
z"/>
<path fill="#E9E45B" opacity="1.000000" stroke="none"
	d="
M633.903015,263.730682
	C627.597290,264.083313 621.221924,264.047028 614.424377,263.999207
	C616.742798,263.135803 619.481506,261.602905 622.224243,261.595795
	C626.092346,261.585724 629.963501,262.705170 633.903015,263.730682
z"/>
<path fill="#E9E45B" opacity="1.000000" stroke="none"
	d="
M733.225830,303.809753
	C732.973022,299.237091 733.062378,294.514069 733.138794,289.373291
	C737.027283,292.682709 737.181946,297.828156 733.225830,303.809753
z"/>
<path fill="#E9E362" opacity="1.000000" stroke="none"
	d="
M451.801514,264.730530
	C448.301331,264.674255 444.581390,264.321381 440.409851,263.931061
	C443.129944,261.011963 447.603668,261.219940 451.801514,264.730530
z"/>
<path fill="#E9E362" opacity="1.000000" stroke="none"
	d="
M430.836426,263.791809
	C427.570099,264.148651 424.261719,264.103333 420.499512,264.075775
	C423.395203,260.294617 427.076080,261.556274 430.836426,263.791809
z"/>
<path fill="#E9E45B" opacity="1.000000" stroke="none"
	d="
M713.631042,262.440552
	C709.885254,263.731384 705.810059,264.810242 701.369873,265.972290
	C703.819702,260.653900 708.779541,262.144501 713.631042,262.440552
z"/>
<path fill="#F1E961" opacity="1.000000" stroke="none"
	d="
M320.190735,310.169617
	C324.250793,309.689209 328.331757,309.618988 332.744354,309.371765
	C330.769745,312.560486 324.758942,313.207642 320.190735,310.169617
z"/>
<path fill="#F1E961" opacity="1.000000" stroke="none"
	d="
M331.890869,245.644135
	C328.569763,246.001480 325.168793,245.967850 321.373779,245.928528
	C324.389771,242.458176 328.087646,243.649658 331.890869,245.644135
z"/>
<path fill="#E9E362" opacity="1.000000" stroke="none"
	d="
M419.148926,310.215515
	C422.811707,309.919312 426.524078,310.026001 430.638733,310.102692
	C427.239960,313.433258 423.245911,312.605103 419.148926,310.215515
z"/>
<path fill="#F1EB66" opacity="1.000000" stroke="none"
	d="
M436.417419,281.999023
	C439.000397,278.937469 442.273193,279.382812 445.823761,281.677917
	C442.958496,282.011902 439.916412,282.010834 436.417419,281.999023
z"/>
<path fill="#E9E45B" opacity="1.000000" stroke="none"
	d="
M613.573425,263.982330
	C612.231628,264.984985 610.490601,265.974579 608.419678,267.050720
	C608.214050,263.560730 610.905884,264.104828 613.573425,263.982330
z"/>
<path fill="#E9E45B" opacity="1.000000" stroke="none"
	d="
M634.735596,311.770050
	C636.286011,310.824493 638.282227,309.973602 640.625244,309.032166
	C640.493225,312.791260 637.612427,311.882538 634.735596,311.770050
z"/>
<path fill="#E9E45B" opacity="1.000000" stroke="none"
	d="
M643.338074,305.715668
	C642.739929,303.927521 642.401367,301.860352 642.020264,299.402771
	C642.517700,301.153809 643.057678,303.295227 643.338074,305.715668
z"/>
<path fill="#E1D95B" opacity="1.000000" stroke="none"
	d="
M696.700073,297.133484
	C696.341919,298.446167 695.687744,299.899017 694.888306,301.663513
	C695.296631,300.408020 695.850342,298.840851 696.700073,297.133484
z"/>
<path fill="#E9E45B" opacity="1.000000" stroke="none"
	d="
M604.418579,304.947327
	C605.626770,305.518768 606.702393,306.457092 607.935913,307.665649
	C606.824585,307.061981 605.555298,306.188080 604.418579,304.947327
z"/>
<path fill="#E9E45B" opacity="1.000000" stroke="none"
	d="
M606.634399,267.995667
	C606.170227,268.886414 605.341125,269.779510 604.231567,270.798035
	C604.723938,269.948303 605.496643,268.973175 606.634399,267.995667
z"/>
<path fill="#E9E45B" opacity="1.000000" stroke="none"
	d="
M731.646973,286.029419
	C730.799316,285.769104 730.037537,285.147400 729.135254,284.263062
	C729.907410,284.556305 730.820129,285.112183 731.646973,286.029419
z"/>
<path fill="#E9E362" opacity="1.000000" stroke="none"
	d="
M456.818176,267.875122
	C455.942169,267.699493 455.076385,267.156464 454.051392,266.348663
	C454.870941,266.558502 455.849701,267.033081 456.818176,267.875122
z"/>
<path fill="#E9E45B" opacity="1.000000" stroke="none"
	d="
M731.213684,306.877197
	C731.368042,306.009766 731.883911,305.121277 732.659729,304.061890
	C732.471497,304.879364 732.023315,305.867767 731.213684,306.877197
z"/>
<path fill="#E1D95B" opacity="1.000000" stroke="none"
	d="
M698.074707,308.339905
	C698.952026,308.359192 699.897522,308.739929 701.074951,309.324097
	C700.252136,309.252167 699.197571,308.976746 698.074707,308.339905
z"/>
<path fill="#EDE76A" opacity="1.000000" stroke="none"
	d="
M310.225006,285.882935
	C310.389496,285.018768 310.909637,284.134613 311.704041,283.100098
	C311.512390,283.920807 311.046539,284.891846 310.225006,285.882935
z"/>
<path fill="#E9E362" opacity="1.000000" stroke="none"
	d="
M434.209778,266.693481
	C433.615173,266.579193 432.878815,266.062683 432.070374,265.268616
	C432.688202,265.424469 433.378143,265.857849 434.209778,266.693481
z"/>
<path fill="#E9E362" opacity="1.000000" stroke="none"
	d="
M462.851624,276.194824
	C462.227722,275.606232 461.643188,274.646973 460.991699,273.353882
	C461.580170,273.954742 462.235596,274.889465 462.851624,276.194824
z"/>
<path fill="#E9E362" opacity="1.000000" stroke="none"
	d="
M436.760132,265.095917
	C436.628540,265.512207 436.132904,265.934387 435.322998,266.472748
	C435.471161,266.093231 435.933655,265.597504 436.760132,265.095917
z"/>
<path fill="#F1EB66" opacity="1.000000" stroke="none"
	d="
M432.049194,309.180908
	C432.201965,308.863007 432.354767,308.545074 432.732269,308.080536
	C432.813293,308.497040 432.669617,309.060181 432.284180,309.600739
	C432.042389,309.578156 432.049194,309.180908 432.049194,309.180908
z"/>
<path fill="#E9E45B" opacity="1.000000" stroke="none"
	d="
M641.966675,298.710999
	C641.606873,298.594940 641.229492,298.164215 640.782166,297.449310
	C641.124512,297.575531 641.536865,297.985931 641.966675,298.710999
z"/>
<path fill="#E1D95B" opacity="1.000000" stroke="none"
	d="
M696.227905,307.095367
	C696.635986,307.040741 697.168579,307.269318 697.863892,307.743195
	C697.468567,307.785187 696.910461,307.581909 696.227905,307.095367
z"/>
<path fill="#F1EA7E" opacity="1.000000" stroke="none"
	d="
M279.210388,308.769745
	C279.122620,308.387756 279.290497,307.859680 279.668427,307.151886
	C279.740997,307.522675 279.603516,308.073151 279.210388,308.769745
z"/>
<path fill="#E9E45B" opacity="1.000000" stroke="none"
	d="
M603.072266,303.232300
	C603.458679,303.278015 603.852173,303.653809 604.365967,304.279602
	C604.017334,304.207245 603.548279,303.884796 603.072266,303.232300
z"/>
<path fill="#E1D95B" opacity="1.000000" stroke="none"
	d="
M694.547363,304.185425
	C694.862793,304.406036 694.997253,304.818115 695.174805,305.553711
	C694.934021,305.377106 694.650208,304.877014 694.547363,304.185425
z"/>
<path fill="#E9E45B" opacity="1.000000" stroke="none"
	d="
M698.027832,286.277100
	C698.386353,286.410370 698.756775,286.858185 699.171997,287.604004
	C698.824402,287.465210 698.432007,287.028412 698.027832,286.277100
z"/>
<path fill="#E9E362" opacity="1.000000" stroke="none"
	d="
M438.823822,264.082336
	C438.650513,264.426819 438.157135,264.757141 437.354675,265.111938
	C437.531647,264.780304 438.017700,264.424255 438.823822,264.082336
z"/>
<path fill="#EDE76A" opacity="1.000000" stroke="none"
	d="
M313.040802,281.784973
	C313.004181,281.365723 313.259430,280.842865 313.774780,280.178650
	C313.800812,280.585358 313.566742,281.133362 313.040802,281.784973
z"/>
<path fill="#E9E45B" opacity="1.000000" stroke="none"
	d="
M726.815735,282.725403
	C726.420349,282.842072 725.837402,282.715302 725.068115,282.348816
	C725.463928,282.233368 726.046021,282.357697 726.815735,282.725403
z"/>
<path fill="#E9E362" opacity="1.000000" stroke="none"
	d="
M460.950439,272.745758
	C460.565765,272.660858 460.171326,272.250977 459.691437,271.559570
	C460.050873,271.658936 460.495758,272.039856 460.950439,272.745758
z"/>
<path fill="#E9E45B" opacity="1.000000" stroke="none"
	d="
M732.906372,287.912384
	C732.516602,287.810364 732.132385,287.363495 731.644592,286.632690
	C731.997986,286.755005 732.454956,287.161255 732.906372,287.912384
z"/>
<path fill="#EDE76A" opacity="1.000000" stroke="none"
	d="
M307.983154,288.778015
	C307.960419,288.358398 308.236267,287.842499 308.768982,287.177429
	C308.777771,287.579468 308.529724,288.130615 307.983154,288.778015
z"/>
<path fill="#E1D95B" opacity="1.000000" stroke="none"
	d="
M699.961243,294.054474
	C700.404480,293.951538 700.818298,293.983368 701.426758,294.077240
	C701.263000,294.266022 700.904480,294.392761 700.258911,294.490845
	C699.971802,294.462189 699.931824,294.189240 699.961243,294.054474
z"/>
<path fill="#E1D95B" opacity="1.000000" stroke="none"
	d="
M698.190552,295.245850
	C698.189148,295.691925 697.857483,296.197357 697.259521,296.850311
	C697.282227,296.433624 697.571167,295.869415 698.190552,295.245850
z"/>
<path fill="#E9E362" opacity="1.000000" stroke="none"
	d="
M458.777405,269.925323
	C458.553528,270.006683 458.255920,269.824432 457.871582,269.387268
	C458.091095,269.308807 458.397400,269.485260 458.777405,269.925323
z"/>
<path fill="#E9E362" opacity="1.000000" stroke="none"
	d="
M459.675385,271.066803
	C459.437561,271.115875 459.188477,270.884216 458.872131,270.398010
	C459.091248,270.357666 459.377686,270.571869 459.675385,271.066803
z"/>
<path fill="#E9E362" opacity="1.000000" stroke="none"
	d="
M457.788574,268.946350
	C457.557129,269.038940 457.244995,268.861176 456.839722,268.424042
	C457.066986,268.335114 457.387451,268.505585 457.788574,268.946350
z"/>
<path fill="#E9E362" opacity="1.000000" stroke="none"
	d="
M453.774963,265.842712
	C453.549133,265.979645 453.150726,265.842957 452.575714,265.436218
	C452.800201,265.300507 453.201294,265.434784 453.774963,265.842712
z"/>
<path fill="#E1D95B" opacity="1.000000" stroke="none"
	d="
M726.735046,309.720459
	C726.752686,309.486847 727.081421,309.271454 727.713928,309.033630
	C727.693848,309.253693 727.369995,309.496185 726.735046,309.720459
z"/>
<path fill="#E9E45B" opacity="1.000000" stroke="none"
	d="
M699.723511,267.068726
	C699.909302,267.324951 699.742859,267.599640 699.208374,267.872314
	C699.052979,267.623871 699.229919,267.362823 699.723511,267.068726
z"/>
<path fill="#E9E45B" opacity="1.000000" stroke="none"
	d="
M607.893738,267.145020
	C607.938965,267.357849 607.731812,267.635712 607.258789,267.955505
	C607.209106,267.735016 607.425232,267.472565 607.893738,267.145020
z"/>
<path fill="#E9E362" opacity="1.000000" stroke="none"
	d="
M431.843658,309.267883
	C432.049194,309.180908 432.042389,309.578156 432.043182,309.776489
	C432.043976,309.974823 431.570221,310.035553 431.331482,310.042877
	C431.205719,309.764465 431.387512,309.532654 431.843658,309.267883
z"/>
<path fill="#E9E45B" opacity="1.000000" stroke="none"
	d="
M603.703125,271.071594
	C603.767090,271.249146 603.613770,271.536713 603.222290,271.910919
	C603.049316,271.662872 603.216553,271.390900 603.703125,271.071594
z"/>
<path fill="#F1E961" opacity="1.000000" stroke="none"
	d="
M319.214661,309.053894
	C319.440857,308.968811 319.745422,309.155060 320.150024,309.595764
	C319.931061,309.675232 319.612061,309.500214 319.214661,309.053894
z"/>
<path fill="#E9E45B" opacity="1.000000" stroke="none"
	d="
M635.776978,264.816162
	C635.566467,264.964630 635.163574,264.852539 634.557373,264.496613
	C634.764221,264.353729 635.174316,264.454681 635.776978,264.816162
z"/>
<path fill="#E9E45B" opacity="1.000000" stroke="none"
	d="
M641.176514,308.886475
	C641.121277,308.694580 641.307495,308.412811 641.741333,308.048218
	C641.798645,308.242462 641.608276,308.519531 641.176514,308.886475
z"/>
<path fill="#F1EA7E" opacity="1.000000" stroke="none"
	d="
M283.210205,279.050964
	C283.417023,279.011505 283.672546,279.218475 283.965820,279.677002
	C283.755341,279.718140 283.507111,279.507721 283.210205,279.050964
z"/>
<path fill="#F1E961" opacity="1.000000" stroke="none"
	d="
M318.302917,307.591797
	C318.564301,307.582367 318.825256,307.921143 319.156952,308.580139
	C318.919312,308.580231 318.610901,308.260101 318.302917,307.591797
z"/>
<path fill="#E9E45B" opacity="1.000000" stroke="none"
	d="
M729.982544,307.826904
	C729.926819,307.603088 730.151489,307.306915 730.648804,306.925476
	C730.701843,307.144989 730.482422,307.449768 729.982544,307.826904
z"/>
<path fill="#E9E45B" opacity="1.000000" stroke="none"
	d="
M642.209473,307.850769
	C642.104675,307.650085 642.243286,307.308838 642.626404,306.832458
	C642.731567,307.034973 642.592224,307.372589 642.209473,307.850769
z"/>
<path fill="#EDE76A" opacity="1.000000" stroke="none"
	d="
M312.194641,282.864899
	C312.086029,282.656342 312.220032,282.323944 312.605408,281.878784
	C312.716949,282.091064 312.577087,282.416046 312.194641,282.864899
z"/>
<path fill="#E1D95B" opacity="1.000000" stroke="none"
	d="
M695.202393,306.062256
	C695.426941,305.986420 695.716187,306.178101 696.091187,306.623291
	C695.873596,306.694489 695.570312,306.512115 695.202393,306.062256
z"/>
<path fill="#E9E45B" opacity="1.000000" stroke="none"
	d="
M728.823853,283.758423
	C728.620605,283.888733 728.240112,283.773193 727.685974,283.408295
	C727.890442,283.276825 728.268494,283.394684 728.823853,283.758423
z"/>
<path fill="#EDE76A" opacity="1.000000" stroke="none"
	d="
M309.251404,286.892700
	C309.161316,286.704041 309.292847,286.386475 309.667969,285.964813
	C309.765411,286.161743 309.619202,286.462769 309.251404,286.892700
z"/>
<path fill="#F1E961" opacity="1.000000" stroke="none"
	d="
M320.127625,246.222046
	C320.171722,246.454437 319.916595,246.740280 319.379089,247.113098
	C319.340607,246.891891 319.584534,246.583694 320.127625,246.222046
z"/>
<path fill="#E9E45B" opacity="1.000000" stroke="none"
	d="
M699.190308,288.067566
	C699.408325,288.008698 699.692688,288.223145 700.066650,288.699158
	C699.856384,288.754120 699.556519,288.547516 699.190308,288.067566
z"/>
<path fill="#E9E45B" opacity="1.000000" stroke="none"
	d="
M642.167603,290.886169
	C642.119934,290.695587 642.319458,290.423553 642.763062,290.063934
	C642.809631,290.252502 642.612183,290.528595 642.167603,290.886169
z"/>
<path fill="#E9E45B" opacity="1.000000" stroke="none"
	d="
M701.172668,290.056030
	C701.441345,289.984344 701.793396,290.181976 702.139648,290.688293
	C701.841248,290.773132 701.548645,290.549225 701.172668,290.056030
z"/>
<path fill="#E9E45B" opacity="1.000000" stroke="none"
	d="
M641.013184,291.772644
	C640.970520,291.539368 641.199890,291.271576 641.702209,290.965149
	C641.745117,291.197083 641.515137,291.467590 641.013184,291.772644
z"/>
<path fill="#F1E961" opacity="1.000000" stroke="none"
	d="
M318.925903,247.211899
	C319.019745,247.433258 318.841278,247.767075 318.402649,248.224533
	C318.312866,248.006912 318.483246,247.665619 318.925903,247.211899
z"/>
<path fill="#F2EB51" opacity="1.000000" stroke="none"
	d="
M490.131348,280.782166
	C493.694672,279.355652 496.991791,279.420227 498.839172,282.490967
	C500.044098,284.493805 501.013123,287.880096 500.105469,289.601288
	C498.944214,291.803467 495.764709,294.240540 493.498505,294.198944
	C491.188232,294.156586 488.174408,291.688538 486.828094,289.460907
	C484.826904,286.149658 487.012390,283.215546 490.131348,280.782166
z"/>
<path fill="#F1E961" opacity="1.000000" stroke="none"
	d="
M624.746948,284.019714
	C621.654297,284.019562 619.018250,284.019562 616.335693,284.019562
	C617.405212,279.582245 621.388306,276.419037 625.097961,277.475616
	C626.687622,277.928345 627.876770,279.786896 629.247925,281.006683
	C627.899841,282.011078 626.551697,283.015472 624.746948,284.019714
z"/>
<path fill="#E1D95B" opacity="1.000000" stroke="none"
	d="
M714.640625,294.952118
	C712.473999,294.580261 709.960754,294.076599 707.229309,293.306610
	C709.438721,293.633636 711.866394,294.226959 714.640625,294.952118
z"/>
<path fill="#E1D95B" opacity="1.000000" stroke="none"
	d="
M709.971130,297.436249
	C710.766846,297.346863 711.734009,297.501282 712.850891,297.917236
	C712.047913,298.012573 711.095276,297.846283 709.971130,297.436249
z"/>
<path fill="#E1D95B" opacity="1.000000" stroke="none"
	d="
M717.365479,298.110107
	C717.037415,297.562103 717.058594,297.005280 717.116577,296.032104
	C717.723572,296.033997 718.293823,296.452271 718.864075,296.870544
	C718.480957,297.280823 718.097839,297.691071 717.365479,298.110107
z"/>
<path fill="#E1D95B" opacity="1.000000" stroke="none"
	d="
M707.299072,296.198059
	C707.912659,296.201691 708.754761,296.426239 709.746704,296.952179
	C709.106873,296.975372 708.317261,296.697174 707.299072,296.198059
z"/>
</svg>
